<?xml version="1.0" encoding="UTF-8"?>
<svg version="1.1" xmlns="http://www.w3.org/2000/svg" width="1024" height="1024">
<path d="M0 0 C337.92 0 675.84 0 1024 0 C1024 337.92 1024 675.84 1024 1024 C686.08 1024 348.16 1024 0 1024 C0 686.08 0 348.16 0 0 Z " fill="#11181A" transform="translate(0,0)"/>
<path d="M0 0 C10.78934438 7.60052811 14.69533944 17.70807536 19.1875 29.6875 C20.06095071 31.98707308 20.93467203 34.28654338 21.80859375 36.5859375 C22.16994919 37.54023399 22.16994919 37.54023399 22.53860474 38.5138092 C24.72944323 44.29935185 26.94296089 50.07607587 29.16015625 55.8515625 C36.52202448 75.03288506 43.85638028 94.22376101 51.10241699 113.44915771 C55.32340509 124.64317449 59.63907531 135.79734445 64 146.9375 C68.89702225 159.44756163 73.62970989 172.01015651 78.25 184.625 C83.20423799 198.15038603 88.26961792 211.62310636 93.47509766 225.05419922 C96.81813181 233.69422156 100.12410669 242.3485811 103.4375 251 C103.81929413 251.99662659 104.20108826 252.99325317 104.5944519 254.02008057 C111.50277224 272.05603374 118.36845027 290.10804357 125.22412109 308.1640625 C131.32773027 324.23845549 137.45082041 340.30524284 143.60498047 356.36035156 C144.51595634 358.73711536 145.42645925 361.11406052 146.33642578 363.49121094 C149.21088971 370.99934982 152.10043869 378.50152133 155 386 C155.45648926 387.18416504 155.91297852 388.36833008 156.38330078 389.58837891 C157.81236662 393.29031675 159.24772591 396.98971419 160.6875 400.6875 C161.14761475 401.86973145 161.60772949 403.05196289 162.08178711 404.27001953 C164.99925868 411.6832239 168.14765606 418.8709525 171.85546875 425.921875 C173.69591792 430.87161543 173.64558124 435.23314607 171.8125 440.25 C169.46100791 443.8177811 166.81557843 446.09221079 163 448 C152.27873559 448.99038808 139.78411049 450.11440354 131 443 C130.06414062 442.27296875 130.06414062 442.27296875 129.109375 441.53125 C118.89434827 432.47096542 114.78251569 418.7577934 110.23974609 406.34619141 C108.85119245 402.59835442 107.42478159 398.86637823 105.98828125 395.13671875 C105.72207977 394.4453331 105.4558783 393.75394745 105.18161011 393.04161072 C104.63061759 391.61070903 104.07960203 390.17981622 103.52856445 388.74893188 C98.57615393 375.87464118 93.75338673 362.95873566 89.03076172 349.99853516 C84.39662901 337.299018 79.59696356 324.66532435 74.77651978 312.03549194 C73.22442179 307.96697618 71.67496338 303.89745433 70.125 299.828125 C67.84234078 293.83569986 65.55936046 287.84339744 63.2755127 281.85142517 C62.06508675 278.67567794 60.85484205 275.49986165 59.6446228 272.32403564 C58.99040545 270.60733828 58.33612608 268.89066456 57.68179321 267.17401123 C53.48676449 256.16774972 49.29971029 245.15851688 45.125 234.14453125 C37.38438506 213.72683698 29.62665117 193.32195082 21.58642578 173.02001953 C18.38966457 164.93136728 15.23126779 156.82755171 12.06375122 148.72741699 C10.91961177 145.8015828 9.77517567 142.87586485 8.63061523 139.95019531 C8.08439766 138.55303787 8.08439766 138.55303787 7.52714539 137.12765503 C6.79763781 135.26414114 6.06645607 133.40128174 5.33357239 131.53909302 C3.3873522 126.58701659 1.47876549 121.62409805 -0.38183594 116.63916016 C-0.77684296 115.59460159 -1.17184998 114.55004303 -1.5788269 113.47383118 C-2.33422781 111.47436001 -3.07926029 109.4709295 -3.81204224 107.46305847 C-6.05000428 101.58106557 -8.1188325 96.94058375 -14 94 C-18.12320251 93.52424586 -20.39979705 93.66927593 -24.0625 95.6875 C-32.4580933 103.65780833 -36.07522659 119.58999447 -40.1875 130.25 C-40.88261296 132.04294649 -41.57809837 133.83574863 -42.27392578 135.62841797 C-43.75335868 139.4418529 -45.23033893 143.25622536 -46.70556641 147.07128906 C-49.00909692 153.0267582 -51.3222859 158.9784485 -53.63671875 164.9296875 C-76.70853586 224.27584458 -99.20994646 283.82915185 -121.35595703 343.52636719 C-121.81334259 344.75849693 -121.81334259 344.75849693 -122.27996826 346.01551819 C-122.83608025 347.51387243 -123.39167122 349.01242022 -123.94659424 350.51121521 C-124.98060774 353.29697954 -126.02842463 356.06906545 -127.15942383 358.81713867 C-128.13793922 361.35820928 -128.30003933 363.40857329 -128.3125 366.125 C-128.33763672 367.39730469 -128.33763672 367.39730469 -128.36328125 368.6953125 C-127.92608058 371.46895118 -127.1794009 372.29253749 -125 374 C-122.59454362 375.20272819 -121.05003047 375.10071472 -118.375 375.0625 C-117.14910156 375.04896484 -117.14910156 375.04896484 -115.8984375 375.03515625 C-115.27195312 375.02355469 -114.64546875 375.01195312 -114 375 C-113.36892334 373.32442017 -113.36892334 373.32442017 -112.72509766 371.61499023 C-104.28006201 349.19897494 -95.79332878 326.79983974 -87.20861816 304.43692017 C-81.43246486 289.38798128 -75.70617961 274.32069775 -70.00214863 259.24428177 C-66.10691061 248.95050506 -62.19694492 238.66232022 -58.28356934 228.37542725 C-57.04220204 225.11097952 -55.8027915 221.84579372 -54.56347656 218.58056641 C-52.72488343 213.74096998 -50.87418559 208.90617987 -49.01324463 204.07513428 C-48.34869553 202.34520901 -47.68787743 200.61384487 -47.03118896 198.88092041 C-42.36787541 186.5865085 -37.84798479 174.96599908 -26.1171875 167.859375 C-20.83610962 165.71576405 -14.10866561 166.36698471 -8.75 168.0625 C3.43065502 173.5202273 7.97724934 187.9819822 12.4453125 199.62109375 C13.3591004 202.03028987 14.26432349 204.44243312 15.16375732 206.85702515 C16.1631212 209.53983712 17.17155464 212.21909686 18.18212891 214.89770508 C19.2831051 217.81659944 20.38337992 220.73574366 21.48092651 223.65592957 C25.62581976 234.68394161 29.83195485 245.68842648 34.03909302 256.69281006 C35.3782966 260.1961238 36.71652073 263.69981016 38.05444336 267.20361328 C42.36189694 278.48356012 46.6727716 289.76219524 50.98828125 301.0390625 C51.38501038 302.07582626 51.7817395 303.11259003 52.19049072 304.18077087 C54.10368658 309.17922806 56.01884246 314.17691976 57.93798828 319.1730957 C61.03220303 327.23059628 64.11891183 335.28951854 67.12890625 343.37890625 C67.58241455 344.58828857 68.03592285 345.7976709 68.50317383 347.04370117 C69.28992978 349.14577382 70.06827665 351.25103086 70.8347168 353.3605957 C73.70962433 361.00715105 77.40424121 367.71732829 83.4375 373.3125 C84.7059375 374.6428125 84.7059375 374.6428125 86 376 C85.83984375 378.03125 85.83984375 378.03125 85 380 C78.83497019 384.69078355 73.61032218 385.96404976 66 385 C55.76494969 381.19204117 49.6187255 371.27077425 45.27685547 361.8190918 C40.42512467 350.74054693 36.38732778 339.30295219 32.20620728 327.95904541 C29.98205498 321.93122522 27.69307302 315.92983825 25.375 309.9375 C21.39479184 299.63089075 17.43864637 289.31529382 13.49121094 278.99609375 C10.76009148 271.85703508 8.02297608 264.72027754 5.28607178 257.58343506 C3.24144679 252.24903046 1.2043436 246.91189184 -0.82150269 241.57032776 C-1.91758815 238.68294963 -3.01919871 235.79770192 -4.12213135 232.91293335 C-4.61711269 231.61416412 -5.1095003 230.31440287 -5.59906006 229.01358032 C-8.85487246 219.99147571 -8.85487246 219.99147571 -14 212 C-16.95588047 210.9998077 -16.95588047 210.9998077 -20 212 C-23.87702258 216.03608378 -25.9411959 219.61749522 -27.8828125 224.921875 C-28.13416962 225.59697617 -28.38552673 226.27207733 -28.64450073 226.96763611 C-29.19202127 228.44262352 -29.73398132 229.91968432 -30.27099609 231.39852905 C-31.15291328 233.82685828 -32.04922751 236.24945719 -32.94921875 238.67114258 C-33.92929278 241.30928641 -34.9082468 243.9478051 -35.88287354 246.58796692 C-39.46167992 256.28187864 -43.14008967 265.93730663 -46.82077026 275.59289551 C-48.83039706 280.86667714 -50.83500545 286.1423653 -52.83984375 291.41796875 C-53.25232864 292.50316803 -53.66481354 293.58836731 -54.08979797 294.70645142 C-57.07055314 302.54987451 -60.04670581 310.39503698 -63.02058792 318.24106789 C-63.75442357 320.1771461 -64.48833294 322.11319636 -65.22225952 324.04924011 C-67.57018358 330.24305973 -69.91745037 336.43712698 -72.26367188 342.6315918 C-74.83694884 349.42315711 -77.41712387 356.21208037 -80 363 C-80.44797943 364.17914978 -80.89595886 365.35829956 -81.35751343 366.57318115 C-82.69849886 370.09956802 -84.04394552 373.62422173 -85.390625 377.1484375 C-85.79225357 378.206073 -86.19388214 379.2637085 -86.60768127 380.35339355 C-92.70485954 396.26604713 -98.68829301 411.37816072 -115 419 C-147.31266226 431.0965351 -191.00820522 410.49951935 -220.17919922 397.30957031 C-231.38251538 392.10837697 -241.940538 386.19328057 -252 379 C-252.98355469 378.30261719 -253.96710938 377.60523438 -254.98046875 376.88671875 C-261.93835147 371.81907584 -268.33002682 366.32800784 -274.54296875 360.38964844 C-275.95532996 359.0426042 -277.3836914 357.71239828 -278.8125 356.3828125 C-294.80703473 341.06986306 -309.97999801 319.00734476 -311.203125 296.21484375 C-311.53093721 278.45904056 -307.0174827 264.44935298 -295 251 C-277.46332604 233.16482946 -254.3346836 229.11463808 -230.65853882 225.59796143 C-196.09892611 220.45677504 -158.5040886 213.45405783 -128.75 194.03125 C-127 193 -127 193 -125 193 C-127.03901541 199.28658155 -129.26551574 205.4786007 -131.6328125 211.6484375 C-131.98211319 212.56302231 -132.33141388 213.47760712 -132.69129944 214.41990662 C-136.27798162 223.80027421 -139.88950952 233.1711535 -143.50732422 242.53955078 C-145.14200998 246.77282897 -146.77115562 251.00816469 -148.39501953 255.24560547 C-150.28557797 260.17666184 -152.19029696 265.10202288 -154.10565186 270.02349854 C-154.81949401 271.8637816 -155.52878386 273.70583783 -156.23321533 275.54974365 C-166.39847894 302.1252819 -166.39847894 302.1252819 -179.08984375 307.9609375 C-187.12575229 311.03972144 -194.88923374 310.17073669 -203.26171875 309.22265625 C-208.49816669 308.79686804 -213.75052106 308.92594779 -219 309 C-217.96359375 309.54269531 -216.9271875 310.08539063 -215.859375 310.64453125 C-214.48948764 311.36700609 -213.11970127 312.08967243 -211.75 312.8125 C-211.06808594 313.16892578 -210.38617188 313.52535156 -209.68359375 313.89257812 C-204.32564408 316.72760975 -204.32564408 316.72760975 -201.921875 318.73828125 C-196.82570797 322.08393562 -188.48175858 320.35580768 -182.73046875 319.53125 C-172.28998538 317.27964383 -163.94499417 311.92929625 -158 303 C-156.63822948 300.37061563 -155.44240656 297.67795222 -154.2578125 294.96484375 C-153.91093887 294.17631516 -153.56406525 293.38778656 -153.2066803 292.57536316 C-149.63122294 284.33228387 -146.49550116 275.93831478 -143.41775513 267.49935913 C-141.69544087 262.7785312 -139.952465 258.06532932 -138.2109375 253.3515625 C-137.85759842 252.39402573 -137.50425934 251.43648895 -137.14021301 250.44993591 C-133.70498049 241.16037567 -130.1427191 231.92191317 -126.5625 222.6875 C-121.24856729 208.96209647 -116.08040964 195.18847177 -111 181.375 C-104.28559083 163.12522438 -97.48841136 144.90777326 -90.63592529 126.70948029 C-89.88503395 124.71416288 -89.13521649 122.71844527 -88.38574219 120.72259521 C-79.30685239 96.55067846 -79.30685239 96.55067846 -74.354599 84.76951599 C-72.13959052 79.45650495 -70.21216539 74.06704679 -68.32972717 68.62867737 C-65.4424078 60.31774134 -62.28382866 52.11411689 -59.09594727 43.91455078 C-58.05924572 41.24160945 -57.03453439 38.56425373 -56.00976562 35.88671875 C-49.94802534 20.1877154 -44.50197522 6.44245456 -29.8125 -3.0625 C-19.82241486 -5.51907831 -9.06524667 -5.11903579 0 0 Z " fill="#094C52" transform="translate(529,200)"/>
<path d="M0 0 C12.18065502 5.4577273 16.72724934 19.9194822 21.1953125 31.55859375 C22.1091004 33.96778987 23.01432349 36.37993312 23.91375732 38.79452515 C24.9131212 41.47733712 25.92155464 44.15659686 26.93212891 46.83520508 C28.0331051 49.75409944 29.13337992 52.67324366 30.23092651 55.59342957 C34.37581976 66.62144161 38.58195485 77.62592648 42.78909302 88.63031006 C44.1282966 92.1336238 45.46652073 95.63731016 46.80444336 99.14111328 C51.11189694 110.42106012 55.4227716 121.69969524 59.73828125 132.9765625 C60.33337494 134.53170815 60.33337494 134.53170815 60.94049072 136.11827087 C62.85368658 141.11672806 64.76884246 146.11441976 66.68798828 151.1105957 C69.78220303 159.16809628 72.86891183 167.22701854 75.87890625 175.31640625 C76.33241455 176.52578857 76.78592285 177.7351709 77.25317383 178.98120117 C78.03992978 181.08327382 78.81827665 183.18853086 79.5847168 185.2980957 C82.45962433 192.94465105 86.15424121 199.65482829 92.1875 205.25 C93.033125 206.136875 93.87875 207.02375 94.75 207.9375 C94.58984375 209.96875 94.58984375 209.96875 93.75 211.9375 C87.58497019 216.62828355 82.36032218 217.90154976 74.75 216.9375 C64.51494969 213.12954117 58.3687255 203.20827425 54.02685547 193.7565918 C49.17512467 182.67804693 45.13732778 171.24045219 40.95620728 159.89654541 C38.73205498 153.86872522 36.44307302 147.86733825 34.125 141.875 C30.14479184 131.56839075 26.18864637 121.25279382 22.24121094 110.93359375 C19.51009148 103.79453508 16.77297608 96.65777754 14.03607178 89.52093506 C11.99144679 84.18653046 9.9543436 78.84939184 7.92849731 73.50782776 C6.83241185 70.62044963 5.73080129 67.73520192 4.62786865 64.85043335 C4.13288731 63.55166412 3.6404997 62.25190287 3.15093994 60.95108032 C-0.10487246 51.92897571 -0.10487246 51.92897571 -5.25 43.9375 C-8.20588047 42.9373077 -8.20588047 42.9373077 -11.25 43.9375 C-15.12702258 47.97358378 -17.1911959 51.55499522 -19.1328125 56.859375 C-19.38416962 57.53447617 -19.63552673 58.20957733 -19.89450073 58.90513611 C-20.44202127 60.38012352 -20.98398132 61.85718432 -21.52099609 63.33602905 C-22.40291328 65.76435828 -23.29922751 68.18695719 -24.19921875 70.60864258 C-25.17929278 73.24678641 -26.1582468 75.8853051 -27.13287354 78.52546692 C-30.71167992 88.21937864 -34.39008967 97.87480663 -38.07077026 107.53039551 C-40.08039706 112.80417714 -42.08500545 118.0798653 -44.08984375 123.35546875 C-44.50232864 124.44066803 -44.91481354 125.52586731 -45.33979797 126.64395142 C-48.32055314 134.48737451 -51.29670581 142.33253698 -54.27058792 150.17856789 C-55.00442357 152.1146461 -55.73833294 154.05069636 -56.47225952 155.98674011 C-58.82018358 162.18055973 -61.16745037 168.37462698 -63.51367188 174.5690918 C-66.08694884 181.36065711 -68.66712387 188.14958037 -71.25 194.9375 C-71.69797943 196.11664978 -72.14595886 197.29579956 -72.60751343 198.51068115 C-73.94849886 202.03706802 -75.29394552 205.56172173 -76.640625 209.0859375 C-77.04225357 210.143573 -77.44388214 211.2012085 -77.85768127 212.29089355 C-83.95485954 228.20354713 -89.93829301 243.31566072 -106.25 250.9375 C-138.56266226 263.0340351 -182.25820522 242.43701935 -211.42919922 229.24707031 C-222.63251538 224.04587697 -233.190538 218.13078057 -243.25 210.9375 C-244.23355469 210.24011719 -245.21710938 209.54273438 -246.23046875 208.82421875 C-253.18835147 203.75657584 -259.58002682 198.26550784 -265.79296875 192.32714844 C-267.20532996 190.9801042 -268.6336914 189.64989828 -270.0625 188.3203125 C-286.05703473 173.00736306 -301.22999801 150.94484476 -302.453125 128.15234375 C-302.78093721 110.39654056 -298.2674827 96.38685298 -286.25 82.9375 C-268.71332604 65.10232946 -245.5846836 61.05213808 -221.90853882 57.53546143 C-187.34892611 52.39427504 -149.7540886 45.39155783 -120 25.96875 C-118.25 24.9375 -118.25 24.9375 -116.25 24.9375 C-118.28901541 31.22408155 -120.51551574 37.4161007 -122.8828125 43.5859375 C-123.23211319 44.50052231 -123.58141388 45.41510712 -123.94129944 46.35740662 C-127.52798162 55.73777421 -131.13950952 65.1086535 -134.75732422 74.47705078 C-136.39200998 78.71032897 -138.02115562 82.94566469 -139.64501953 87.18310547 C-141.53557797 92.11416184 -143.44029696 97.03952288 -145.35565186 101.96099854 C-146.06949401 103.8012816 -146.77878386 105.64333783 -147.48321533 107.48724365 C-157.64847894 134.0627819 -157.64847894 134.0627819 -170.33984375 139.8984375 C-178.37575229 142.97722144 -186.13923374 142.10823669 -194.51171875 141.16015625 C-199.74816669 140.73436804 -205.00052106 140.86344779 -210.25 140.9375 C-209.27160156 141.43378906 -208.29320312 141.93007813 -207.28515625 142.44140625 C-199.70040146 146.34664914 -192.71152348 150.30033599 -186.25 155.9375 C-185.51136719 156.56785156 -184.77273438 157.19820312 -184.01171875 157.84765625 C-167.45457237 172.34532124 -153.66842173 187.4261319 -143.25 206.9375 C-142.81558594 207.74219727 -142.38117188 208.54689453 -141.93359375 209.37597656 C-140.53160432 211.97590543 -139.13861882 214.5804074 -137.75 217.1875 C-137.30398438 218.0223291 -136.85796875 218.8571582 -136.3984375 219.71728516 C-135.98851562 220.4963623 -135.57859375 221.27543945 -135.15625 222.078125 C-134.78822266 222.77454102 -134.42019531 223.47095703 -134.04101562 224.18847656 C-133.25 225.9375 -133.25 225.9375 -133.25 227.9375 C-127.73166201 229.89191137 -123.99440033 230.32727427 -118.25 228.9375 C-107.23360166 221.33093924 -102.96687892 201.06855305 -98.5 189.125 C-97.65741365 186.88708473 -96.81405641 184.64945956 -95.9699707 182.41210938 C-94.66970303 178.96554007 -93.36982181 175.51883247 -92.07221985 172.07125854 C-88.26321811 161.9532857 -84.40085105 151.85631236 -80.52349854 141.76437378 C-74.53349698 126.17229167 -68.58627889 110.56449352 -62.67522144 94.94231129 C-62.44119964 94.32382659 -62.20717783 93.70534189 -61.96606445 93.06811523 C-61.73153155 92.4482735 -61.49699865 91.82843176 -61.2553587 91.18980694 C-57.35879171 80.89345317 -53.44796921 70.60251271 -49.53356934 60.31292725 C-48.29220204 57.04847952 -47.0527915 53.78329372 -45.81347656 50.51806641 C-43.97488343 45.67846998 -42.12418559 40.84367987 -40.26324463 36.01263428 C-39.59869553 34.28270901 -38.93787743 32.55134487 -38.28118896 30.81842041 C-33.61787541 18.5240085 -29.09798479 6.90349908 -17.3671875 -0.203125 C-12.08610962 -2.34673595 -5.35866561 -1.69551529 0 0 Z " fill="#17A79C" transform="translate(520.25,368.0625)"/>
<path d="M0 0 C15.6124317 13.46721208 24.49446779 31.28613422 26.05859375 51.83203125 C27.41607735 82.43325293 23.3532045 111.32907277 15.05859375 140.83203125 C14.69942871 142.117146 14.69942871 142.117146 14.33300781 143.42822266 C12.75585242 148.96200083 10.96295959 154.4028829 9.05859375 159.83203125 C8.7037793 160.85216309 8.34896484 161.87229492 7.98339844 162.92333984 C-4.90408969 199.51593103 -22.55586664 234.7797884 -45.94140625 265.83203125 C-46.39241699 266.43176758 -46.84342773 267.03150391 -47.30810547 267.64941406 C-50.14761867 271.40732107 -53.04137539 275.12059279 -55.94140625 278.83203125 C-56.63621094 279.75628906 -57.33101562 280.68054688 -58.046875 281.6328125 C-58.67207031 282.46167969 -59.29726563 283.29054688 -59.94140625 284.14453125 C-60.74578125 285.22154297 -60.74578125 285.22154297 -61.56640625 286.3203125 C-62.02015625 286.81917969 -62.47390625 287.31804687 -62.94140625 287.83203125 C-63.60140625 287.83203125 -64.26140625 287.83203125 -64.94140625 287.83203125 C-72.88862515 268.47543869 -80.2671795 248.90472129 -87.68049622 229.33944702 C-88.09659653 228.24129669 -88.51269684 227.14314636 -88.94140625 226.01171875 C-89.35931931 224.90865387 -89.77723236 223.80558899 -90.20780945 222.6690979 C-94.42434823 211.54599135 -98.68032838 200.43813475 -102.94140625 189.33203125 C-108.85232198 173.92269879 -114.73222637 158.50191536 -120.58724976 143.07125854 C-128.97129371 120.9765748 -137.41606156 98.9086191 -146.04847717 76.90956116 C-147.52469772 73.14679395 -148.9988234 69.38320704 -150.47305298 65.61965942 C-151.54219115 62.89377039 -152.61509786 60.16938605 -153.68823242 57.44506836 C-154.34830539 55.76161905 -155.00822477 54.07810951 -155.66796875 52.39453125 C-155.96948349 51.63237808 -156.27099823 50.87022491 -156.58164978 50.0849762 C-158.28952179 45.71419885 -159.72526971 41.36510741 -160.94140625 36.83203125 C-136.65072004 13.44602609 -107.70847 -3.85986904 -74.94140625 -12.16796875 C-73.79200562 -12.4616333 -73.79200562 -12.4616333 -72.61938477 -12.76123047 C-48.2958061 -18.32530182 -20.34997472 -14.99898535 0 0 Z " fill="#096C92" transform="translate(735.94140625,238.16796875)"/>
<path d="M0 0 C1.03447266 0.68642578 1.03447266 0.68642578 2.08984375 1.38671875 C9.33064346 6.90418034 13.17134383 15.51403148 16 24 C17.15042673 37.50521639 16.95254077 50.59433625 8.6875 61.875 C1.20324726 70.68093993 -7.33624553 76.60171365 -19 78 C-32.78755304 79.02015527 -43.51612484 76.85430164 -54.5234375 68.2578125 C-62.76277959 60.74623564 -67.5616419 51.01061027 -68.37890625 39.87890625 C-68.94802413 26.40473779 -65.8271707 15.45421276 -57 5 C-41.91619226 -11.1866333 -17.82026674 -11.912996 0 0 Z " fill="#F3F3F1" transform="translate(519,720)"/>
<path d="M0 0 C7.59 0 15.18 0 23 0 C24.31484375 3.54234375 24.31484375 3.54234375 25.65625 7.15625 C26.59355163 9.67952329 27.53121904 12.20266034 28.46896362 14.72576904 C29.15672288 16.57633713 29.84432443 18.42696384 30.5317688 20.27764893 C35.17501088 32.77483013 39.8455444 45.2614836 44.54540634 57.7374649 C45.36913899 59.92449756 46.19236813 62.11171904 47.01541138 64.29901123 C47.28686037 65.02038143 47.55830936 65.74175163 47.83798409 66.48498154 C48.38575565 67.94069633 48.93350932 69.39641786 49.48124504 70.85214615 C51.11391217 75.1902515 52.75012286 79.52700119 54.38868618 83.86288261 C55.42228629 86.60033966 56.45270281 89.33898729 57.48231697 92.07794571 C57.96576703 93.36192352 58.4505758 94.64539067 58.93682671 95.92831039 C59.60718514 97.69744835 60.27233991 99.46855544 60.93725586 101.23974609 C61.31313339 102.23589935 61.68901093 103.23205261 62.07627869 104.25839233 C63 107 63 107 64 112 C56.74 112 49.48 112 42 112 C40.66100575 108.23108983 39.32859288 104.46007538 38 100.6875 C37.6184375 99.61564453 37.236875 98.54378906 36.84375 97.43945312 C36.4828125 96.41142578 36.121875 95.38339844 35.75 94.32421875 C35.24726562 92.9024231 35.24726562 92.9024231 34.734375 91.4519043 C34 89 34 89 34 86 C19.48 86.33 4.96 86.66 -10 87 C-12.97 95.25 -15.94 103.5 -19 112 C-25.93 112 -32.86 112 -40 112 C-35.24303374 98.38333693 -30.45656529 84.77786077 -25.625 71.1875 C-25.29105225 70.24774323 -24.95710449 69.30798645 -24.61303711 68.3397522 C-16.50274306 45.52585022 -8.25805344 22.76074878 0 0 Z " fill="#F4F4F2" transform="translate(722,684)"/>
<path d="M0 0 C0.91644287 0.00523682 1.83288574 0.01047363 2.77709961 0.01586914 C4.26113281 0.02070312 4.26113281 0.02070312 5.77514648 0.02563477 C6.81606445 0.03401367 7.85698242 0.04239258 8.92944336 0.05102539 C10.49662109 0.05779297 10.49662109 0.05779297 12.09545898 0.06469727 C14.68600996 0.07652627 17.27644895 0.0930085 19.86694336 0.11352539 C43.31506827 62.44710882 43.31506827 62.44710882 52.74194336 88.17602539 C53.04963654 89.01334198 53.35732971 89.85065857 53.67434692 90.71334839 C54.53047264 93.04492419 55.38303198 95.3777669 56.23413086 97.71118164 C56.47573441 98.36873444 56.71733795 99.02628723 56.96626282 99.70376587 C58.45952358 103.81863198 59.65850717 107.88399872 60.86694336 112.11352539 C53.93694336 112.11352539 47.00694336 112.11352539 39.86694336 112.11352539 C30.86694336 91.11352539 30.86694336 91.11352539 30.86694336 86.11352539 C16.34694336 86.44352539 1.82694336 86.77352539 -13.13305664 87.11352539 C-15.72231902 94.59225684 -15.72231902 94.59225684 -18.30859375 102.07202148 C-18.63093994 103.00095215 -18.95328613 103.92988281 -19.28540039 104.88696289 C-19.61531982 105.84006348 -19.94523926 106.79316406 -20.28515625 107.77514648 C-21.13305664 110.11352539 -21.13305664 110.11352539 -22.13305664 112.11352539 C-29.06305664 112.11352539 -35.99305664 112.11352539 -43.13305664 112.11352539 C-37.25732118 94.75709022 -31.12977406 77.51337838 -24.75878906 60.33300781 C-24.15819603 58.7130048 -23.55769282 57.09296849 -22.95727539 55.47290039 C-22.65411911 54.65493484 -22.35096283 53.8369693 -22.03862 52.99421692 C-19.56954716 46.320079 -17.13736288 39.63289925 -14.71508789 32.94165039 C-14.34766479 31.92732437 -13.9802417 30.91299835 -13.60168457 29.86793518 C-12.14779243 25.853046 -10.69437959 21.83799594 -9.24627686 17.8210144 C-8.24604135 15.04656899 -7.24255072 12.27331986 -6.23852539 9.50024414 C-5.93815872 8.66362244 -5.63779205 7.82700073 -5.32832336 6.96502686 C-2.85652319 0.15202968 -2.85652319 0.15202968 0 0 Z " fill="#F3F3F0" transform="translate(240.133056640625,683.886474609375)"/>
<path d="M0 0 C9.89669857 5.61246985 13.7703331 14.06289693 17.765625 24.36962891 C18.75239781 26.88758158 19.78322649 29.3858503 20.8125 31.88671875 C21.56420668 33.7571275 22.31421213 35.62822088 23.0625 37.5 C23.42915771 38.3878418 23.79581543 39.27568359 24.17358398 40.19042969 C26.19097772 45.35753243 27.22882975 49.02785537 25.625 54.5625 C22.61818206 57.49222005 20.09133023 59.32379508 15.9375 60 C12.25870835 59.51412186 10.1553804 58.44510459 7.4140625 55.9453125 C4.54881808 52.12915726 2.9101683 47.76825494 1.28540039 43.30078125 C-0.60491932 38.37063099 -2.47687135 36.02716346 -7.375 33.5625 C-9.66620043 32.9109468 -9.66620043 32.9109468 -11.875 33 C-12.5865625 32.97808594 -13.298125 32.95617187 -14.03125 32.93359375 C-17.52304801 33.87055955 -19.90800333 36.01189777 -22.375 38.5625 C-24.26088413 41.71679158 -24.26088413 41.71679158 -25.6640625 45.36328125 C-25.94859283 46.04787918 -26.23312317 46.73247711 -26.52627563 47.43782043 C-27.49893548 49.80408388 -28.43986385 52.18116492 -29.375 54.5625 C-29.72816284 55.45676697 -30.08132568 56.35103394 -30.44519043 57.2723999 C-33.67105403 65.46852594 -36.81716757 73.69498957 -39.96289062 81.92211914 C-44.23004854 93.06825962 -48.54467749 104.18689535 -53.1953125 115.1796875 C-53.54967377 116.02746262 -53.90403503 116.87523773 -54.26913452 117.748703 C-58.76828145 128.23560235 -64.87259772 137.36943024 -75.375 142.5625 C-81.92660287 145.13634398 -88.40830144 145.81163623 -94.9375 143.0625 C-96.1440625 142.32 -96.1440625 142.32 -97.375 141.5625 C-96.82208195 137.94127613 -95.71759356 136.7682882 -92.8125 134.625 C-76.2308912 120.45419248 -70.01111744 93.33596745 -62.48620605 73.487854 C-59.34419715 65.21622132 -56.16776141 56.95779658 -52.98339844 48.70239258 C-52.15526546 46.55223021 -51.32945037 44.40117379 -50.50585938 42.24926758 C-36.24102536 4.98940881 -36.24102536 4.98940881 -22.6875 -1.2890625 C-14.71307436 -4.05378082 -7.65857205 -3.40911499 0 0 Z " fill="#15ADA4" transform="translate(524.375,504.4375)"/>
<path d="M0 0 C5.46230455 4.58788157 8.57768414 9.40761015 10.5625 16.25 C10.80300903 19.32528687 10.80300903 19.32528687 10.78955078 22.62255859 C10.78939972 23.86339203 10.78924866 25.10422546 10.78909302 26.38265991 C10.77888225 27.72125411 10.7684503 29.05984663 10.7578125 30.3984375 C10.75407813 31.77991531 10.75123316 33.16139578 10.74923706 34.5428772 C10.74163392 38.16293771 10.72201437 41.78283543 10.6998291 45.40283203 C10.67929878 49.10316771 10.67022004 52.80352992 10.66015625 56.50390625 C10.63876496 63.75268665 10.60361033 71.00129969 10.5625 78.25 C4.9525 78.25 -0.6575 78.25 -6.4375 78.25 C-7.0975 76.27 -7.7575 74.29 -8.4375 72.25 C-9.118125 72.848125 -9.79875 73.44625 -10.5 74.0625 C-18.3764345 79.92792994 -26.89943932 80.97059524 -36.4375 80.25 C-43.31277562 78.86841771 -49.60914612 75.92832552 -53.9453125 70.2890625 C-58.5885275 63.15177773 -59.19951235 56.71922296 -58.4375 48.25 C-56.70467655 41.96590534 -52.7692245 37.80016781 -47.4375 34.25 C-40.06530506 30.467662 -32.73166439 29.34948215 -24.5625 28.5625 C-22.35655928 28.33143792 -20.15081954 28.09844676 -17.9453125 27.86328125 C-16.98254395 27.76829346 -16.01977539 27.67330566 -15.02783203 27.57543945 C-12.75477563 27.2898613 -10.64098431 26.86438939 -8.4375 26.25 C-8.12093038 21.65974045 -8.04930763 19.08849551 -10 14.875 C-13.98798862 10.58024303 -18.37200659 10.17436841 -24 9.9375 C-28.12401164 10.0428836 -30.95392989 10.92761993 -34.4375 13.25 C-37.02877153 16.01997991 -37.48383432 17.43533729 -38.4375 21.25 C-44.3775 21.25 -50.3175 21.25 -56.4375 21.25 C-55.21797165 11.49377317 -51.97422863 5.58611266 -44.29296875 -0.53515625 C-32.08319172 -8.52934711 -11.89946988 -8.34972183 0 0 Z " fill="#F4F4F2" transform="translate(662.4375,717.75)"/>
<path d="M0 0 C6.6 0 13.2 0 20 0 C20.01401855 2.39088867 20.01401855 2.39088867 20.02832031 4.83007812 C20.06830147 10.76427788 20.13408427 16.69796366 20.20751953 22.63183594 C20.23568181 25.19622171 20.25691981 27.76069353 20.27099609 30.32519531 C20.29249026 34.01932677 20.33917745 37.71242887 20.390625 41.40625 C20.39185364 42.5461438 20.39308228 43.6860376 20.39434814 44.86047363 C20.51872464 51.67589907 21.3134089 56.21186569 25 62 C29.8333933 65.68258537 35.15162827 65.70370652 41 65 C45.22467804 63.46375344 47.69648049 61.8796118 50 58 C51.01545766 54.95362701 51.1541977 52.80222902 51.20532227 49.6105957 C51.22526749 48.50968094 51.24521271 47.40876617 51.26576233 46.27449036 C51.28247482 45.08691635 51.29918732 43.89934235 51.31640625 42.67578125 C51.33718735 41.45924362 51.35796844 40.24270599 51.37937927 38.98930359 C51.44484717 35.09709404 51.50374715 31.20481615 51.5625 27.3125 C51.60568782 24.67642518 51.6493022 22.04035731 51.69335938 19.40429688 C51.80052582 12.93626824 51.90180126 6.46817075 52 0 C58.6 0 65.2 0 72 0 C72 26.73 72 53.46 72 81 C66.06 81 60.12 81 54 81 C53.505 77.04 53.505 77.04 53 73 C52.29037109 73.70576172 52.29037109 73.70576172 51.56640625 74.42578125 C43.78036118 81.75650205 36.86985732 83.63361344 26.21484375 83.34765625 C18.26955463 82.48844515 11.25366286 79.08023915 6 73 C-0.00045716 63.93347852 -0.28557882 54.29169674 -0.1953125 43.75 C-0.1924826 42.49614502 -0.18965271 41.24229004 -0.18673706 39.95043945 C-0.17748144 36.6427535 -0.15956217 33.33526818 -0.1373291 30.02764893 C-0.11674364 26.64215531 -0.10770839 23.25663213 -0.09765625 19.87109375 C-0.07566871 13.24730822 -0.04117636 6.62369291 0 0 Z " fill="#F5F5F3" transform="translate(308,715)"/>
<path d="M0 0 C6.93 0 13.86 0 21 0 C21 36.96 21 73.92 21 112 C14.07 112 7.14 112 0 112 C0 75.04 0 38.08 0 0 Z " fill="#F6F6F3" transform="translate(801,684)"/>
<path d="M0 0 C1.18261719 2.25317383 1.18261719 2.25317383 2.296875 5.20703125 C2.69777344 6.26857422 3.09867188 7.33011719 3.51171875 8.42382812 C3.92035156 9.54208984 4.32898438 10.66035156 4.75 11.8125 C5.38615234 13.47249023 5.38615234 13.47249023 6.03515625 15.16601562 C9.05263047 23.28960665 9.05263047 23.28960665 8.83666992 26.20458984 C7.74114574 28.5554754 6.66609376 29.13652409 4.37890625 30.33203125 C3.23736084 30.9357959 3.23736084 30.9357959 2.07275391 31.55175781 C0.83017822 32.1758252 0.83017822 32.1758252 -0.4375 32.8125 C-1.29424316 33.25045898 -2.15098633 33.68841797 -3.03369141 34.13964844 C-21.51063477 43.40697443 -41.11061175 49.43862337 -61.375 53.375 C-62.23649658 53.54281982 -63.09799316 53.71063965 -63.9855957 53.88354492 C-68.73820193 54.75212953 -73.16989338 55.16924902 -78 55 C-76.9183821 45.88944926 -72.00004639 35.59074902 -65.046875 29.4375 C-59.07230524 25.24161895 -52.27242229 22.53418905 -45.58927917 19.67980957 C-39.13444718 16.91039869 -32.8003525 13.97249526 -26.54296875 10.78125 C-25.8529628 10.42957764 -25.16295685 10.07790527 -24.45204163 9.71557617 C-21.6373757 8.2762296 -18.82590607 6.83095615 -16.01928711 5.37597656 C-13.92736669 4.29398949 -11.82951169 3.22433706 -9.73046875 2.15625 C-8.77904243 1.65647644 -8.77904243 1.65647644 -7.80839539 1.14660645 C-3.34022175 -1.11340725 -3.34022175 -1.11340725 0 0 Z " fill="#0AA1B8" transform="translate(558,570)"/>
<path d="M0 0 C0 6.27 0 12.54 0 19 C-1.60875 18.9175 -3.2175 18.835 -4.875 18.75 C-10.88897262 18.78099986 -15.88881473 19.71555604 -21 23 C-27.81273089 30.22853136 -28.29592461 39.98529426 -28.4140625 49.40625 C-28.43342865 50.3715564 -28.4527948 51.33686279 -28.4727478 52.3314209 C-28.53210018 55.38752657 -28.57875038 58.44367082 -28.625 61.5 C-28.66322064 63.58334895 -28.7022747 65.66668278 -28.7421875 67.75 C-28.83931968 72.8332507 -28.9192398 77.91635788 -29 83 C-35.27 83 -41.54 83 -48 83 C-48 56.27 -48 29.54 -48 2 C-41.73 2 -35.46 2 -29 2 C-28.67 4.97 -28.34 7.94 -28 11 C-27.43152344 10.45730469 -26.86304688 9.91460938 -26.27734375 9.35546875 C-17.58016285 1.29714588 -11.79649977 -0.39763482 0 0 Z " fill="#F4F3F0" transform="translate(597,713)"/>
<path d="M0 0 C1 1 1 1 1.11352539 2.76586914 C1.10828857 3.51473389 1.10305176 4.26359863 1.09765625 5.03515625 C1.09443359 5.84404297 1.09121094 6.65292969 1.08789062 7.48632812 C1.07532227 8.7615332 1.07532227 8.7615332 1.0625 10.0625 C1.05798828 10.91650391 1.05347656 11.77050781 1.04882812 12.65039062 C1.03700373 14.76695663 1.01906769 16.88348685 1 19 C0.2265625 18.95359375 -0.546875 18.9071875 -1.34375 18.859375 C-8.18399768 18.62233671 -13.3831521 18.85196462 -19 23 C-26.71955811 30.51092141 -27.12070702 41.41571036 -27.31640625 51.5546875 C-27.33718735 52.45623566 -27.35796844 53.35778381 -27.37937927 54.28665161 C-27.4444458 57.1493614 -27.50355914 60.01215819 -27.5625 62.875 C-27.60572607 64.82292544 -27.64934164 66.77084229 -27.69335938 68.71875 C-27.80081144 73.47907904 -27.90020319 78.23947976 -28 83 C-33.94 83 -39.88 83 -46 83 C-46 56.27 -46 29.54 -46 2 C-39.73 2 -33.46 2 -27 2 C-27 4.97 -27 7.94 -27 11 C-26.67 10.67 -26.34 10.34 -26 10 C-17.90063255 2.29572364 -11.37581527 -1.02342975 0 0 Z " fill="#F5F5F3" transform="translate(444,713)"/>
<path d="M0 0 C6.30548031 3.29411863 11.14971818 9.33596477 13.3359375 16.05078125 C14.9318767 23.87088333 14.55775162 32.21285591 10.8046875 39.34765625 C7.76948782 43.8181054 4.22264354 48.13201445 -1.05078125 49.94140625 C-7.74920614 51.21032463 -14.73027023 51.738304 -20.7578125 48.16015625 C-25.99590116 44.23158976 -29.14694678 39.56188672 -31.1953125 33.34765625 C-32.34144362 23.97803434 -32.09200766 15.10181038 -26.1953125 7.34765625 C-18.98823451 -0.34203857 -10.46412025 -3.10944499 0 0 Z " fill="#111719" transform="translate(502.1953125,730.65234375)"/>
<path d="M0 0 C0.66 0 1.32 0 2 0 C4.28305205 6.3704998 6.5612149 12.74273221 8.8359375 19.11621094 C9.61084495 21.28556174 10.3868835 23.45450883 11.1640625 25.62304688 C12.27899886 28.73462947 13.3898999 31.84762676 14.5 34.9609375 C14.84998047 35.934935 15.19996094 36.9089325 15.56054688 37.91244507 C15.88087891 38.81322784 16.20121094 39.71401062 16.53125 40.64208984 C16.81548828 41.43706879 17.09972656 42.23204773 17.39257812 43.05111694 C18 45 18 45 18 47 C6.78 47 -4.44 47 -16 47 C-12.625 36.875 -12.625 36.875 -11.46606445 33.48999023 C-11.20602127 32.72988144 -10.94597809 31.96977264 -10.67805481 31.18663025 C-10.40917953 30.4018782 -10.14030426 29.61712616 -9.86328125 28.80859375 C-9.57897751 27.97787857 -9.29467377 27.14716339 -9.00175476 26.29127502 C-8.10567233 23.67323491 -7.20909509 21.05536458 -6.3125 18.4375 C-5.69983687 16.64779773 -5.08720636 14.85808429 -4.47460938 13.06835938 C-2.98344961 8.71211052 -1.49184649 4.35601372 0 0 Z " fill="#111618" transform="translate(248,706)"/>
<path d="M0 0 C3.41847725 3.80269211 4.72182907 8.28792231 6.35546875 13.03515625 C6.66196854 13.91022324 6.96846832 14.78529022 7.28425598 15.68687439 C7.92884598 17.5323272 8.56994102 19.379004 9.20776367 21.22680664 C10.18619016 24.05870887 11.17717472 26.88598106 12.16992188 29.71289062 C12.79502001 31.50755173 13.41939395 33.30246528 14.04296875 35.09765625 C14.3397905 35.94457535 14.63661224 36.79149445 14.94242859 37.66407776 C15.21303604 38.45177048 15.48364349 39.2394632 15.76245117 40.05102539 C16.00211105 40.74289444 16.24177094 41.43476349 16.48869324 42.14759827 C17 44 17 44 17 47 C6.11 47 -4.78 47 -16 47 C-14.19531425 40.3828189 -12.41843009 33.98168826 -10.1171875 27.55859375 C-9.85745148 26.82423599 -9.59771545 26.08987823 -9.33010864 25.33326721 C-8.78914652 23.80607417 -8.2463256 22.2795383 -7.70166016 20.75366211 C-6.86593719 18.41210755 -6.03602575 16.06855356 -5.20703125 13.72460938 C-4.67741307 12.23165382 -4.14747708 10.73881096 -3.6171875 9.24609375 C-3.24531815 8.19777626 -3.24531815 8.19777626 -2.86593628 7.12828064 C-1.11736061 2.23472122 -1.11736061 2.23472122 0 0 Z " fill="#13181A" transform="translate(733,706)"/>
<path d="M0 0 C0.57306459 13.11681173 0.57306459 13.11681173 -3 18 C-8.25263581 23.25263581 -13.24861527 25.01798115 -20.5625 25.3125 C-24.67153117 25.21433202 -27.51978852 24.29184658 -31 22 C-33.67566772 17.98649843 -33.92813644 14.71526457 -33 10 C-27.15267091 3.12938832 -18.03657543 2.73529384 -9.5625 1.375 C-8.74845703 1.2409375 -7.93441406 1.106875 -7.09570312 0.96875 C-1.16952328 0 -1.16952328 0 0 0 Z " fill="#111618" transform="translate(655,758)"/>
<path d="M0 0 C0.99 0.495 0.99 0.495 2 1 C1.38577267 4.78382793 0.28135634 7.87110439 -1.37109375 11.32421875 C-2.10102539 12.85344971 -2.10102539 12.85344971 -2.84570312 14.41357422 C-3.37099609 15.49396973 -3.89628906 16.57436523 -4.4375 17.6875 C-4.97955078 18.80656738 -5.52160156 19.92563477 -6.08007812 21.07861328 C-19.19734784 47.92442055 -35.06495843 73.08468746 -54.328125 95.96875 C-56.13866926 98.09914813 -56.13866926 98.09914813 -58 101 C-58.66 101 -59.32 101 -60 101 C-66.46718469 85.24824324 -72.58362411 69.36314286 -78.64584351 53.4520874 C-79.50339922 51.2016748 -80.36213389 48.95171109 -81.22207642 46.70220947 C-82.45263526 43.48129162 -83.67820255 40.25851788 -84.90234375 37.03515625 C-85.45500412 35.59081459 -85.45500412 35.59081459 -86.01882935 34.11729431 C-88.2781218 28.14560699 -90.25213715 22.1409779 -92 16 C-88.06153846 19.32307692 -88.06153846 19.32307692 -87.75 22.75 C-87.8325 23.4925 -87.915 24.235 -88 25 C-87.34 25 -86.68 25 -86 25 C-82.57142857 33.42857143 -82.57142857 33.42857143 -83 38 C-82.34 38 -81.68 38 -81 38 C-80.49242138 39.41396902 -79.99425075 40.83131729 -79.5 42.25 C-79.2215625 43.03890625 -78.943125 43.8278125 -78.65625 44.640625 C-78 47 -78 47 -78 51 C-77.34 51 -76.68 51 -76 51 C-75.80664062 51.68707031 -75.61328125 52.37414062 -75.4140625 53.08203125 C-75.02347656 54.43361328 -75.02347656 54.43361328 -74.625 55.8125 C-74.24214844 57.15248047 -74.24214844 57.15248047 -73.8515625 58.51953125 C-73.04733339 61.20467896 -73.04733339 61.20467896 -71 64 C-71 64.99 -71 65.98 -71 67 C-70.34 67.33 -69.68 67.66 -69 68 C-69.33 69.32 -69.66 70.64 -70 72 C-68.515 72.495 -68.515 72.495 -67 73 C-67 75.31 -67 77.62 -67 80 C-66.34 80 -65.68 80 -65 80 C-64.30093058 81.59915881 -63.61610532 83.20455045 -62.9375 84.8125 C-62.55464844 85.70582031 -62.17179688 86.59914063 -61.77734375 87.51953125 C-61 90 -61 90 -62 93 C-61.34 93 -60.68 93 -60 93 C-59.01 93.99 -59.01 93.99 -58 95 C-53.04437087 91.26978687 -53.04437087 91.26978687 -50 86 C-49.34 86 -48.68 86 -48 86 C-48 84.68 -48 83.36 -48 82 C-47.01 81.67 -46.02 81.34 -45 81 C-43.28432339 77.49705129 -43.28432339 77.49705129 -42 74 C-41.34 74 -40.68 74 -40 74 C-40 73.01 -40 72.02 -40 71 C-39.01 71 -38.02 71 -37 71 C-37 70.01 -37 69.02 -37 68 C-36.34 68 -35.68 68 -35 68 C-34.9175 67.2575 -34.835 66.515 -34.75 65.75 C-33.85280293 62.4602774 -32.45029221 61.29714895 -30 59 C-29.67 58.01 -29.34 57.02 -29 56 C-28.34 56 -27.68 56 -27 56 C-26.9175 55.278125 -26.835 54.55625 -26.75 53.8125 C-25.83722393 50.38958972 -24.26087365 48.71304837 -22 46 C-19.76607221 42.53975521 -17.66005921 39.12537005 -17 35 C-16.34 35 -15.68 35 -15 35 C-15.309375 34.071875 -15.309375 34.071875 -15.625 33.125 C-15.810625 32.073125 -15.810625 32.073125 -16 31 C-14 29 -14 29 -11 28 C-9.89599055 25.27472164 -9.89599055 25.27472164 -9 22 C-8.13696393 19.703801 -7.26183904 17.4121112 -6.375 15.125 C-5.70597656 13.39636719 -5.70597656 13.39636719 -5.0234375 11.6328125 C-4.68570313 10.76398438 -4.34796875 9.89515625 -4 9 C-3.34 9 -2.68 9 -2 9 C-2.04125 8.2575 -2.0825 7.515 -2.125 6.75 C-1.99601866 3.91241048 -1.42948778 2.41226062 0 0 Z " fill="#0994BF" transform="translate(731,425)"/>
<path d="M0 0 C6.93 0 13.86 0 21 0 C21 36.96 21 73.92 21 112 C14.07 112 7.14 112 0 112 C0 93.52 0 75.04 0 56 C0.33 56 0.66 56 1 56 C1 74.15 1 92.3 1 111 C6.94 111 12.88 111 19 111 C19 75.03 19 39.06 19 2 C4.8309701 1.29102376 4.8309701 1.29102376 0 7 C0 4.69 0 2.38 0 0 Z " fill="#FDFDFC" transform="translate(801,684)"/>
<path d="M0 0 C6.27 0 12.54 0 19 0 C19 1.98 19 3.96 19 6 C18.67 4.68 18.34 3.36 18 2 C12.72 2 7.44 2 2 2 C2 27.74 2 53.48 2 80 C7.28 80 12.56 80 18 80 C17.505 79.01 17.505 79.01 17 78 C16.88872421 75.20258264 16.83588325 72.43082963 16.83203125 69.6328125 C16.82870285 68.80167938 16.82537445 67.97054626 16.82194519 67.11422729 C16.81687784 65.3539892 16.81453681 63.59374148 16.81469727 61.83349609 C16.81251439 59.14274195 16.79436685 56.45240012 16.77539062 53.76171875 C16.77245593 52.05208474 16.77047164 50.34244877 16.76953125 48.6328125 C16.76234573 47.82852814 16.75516022 47.02424377 16.74775696 46.19558716 C16.76488142 41.99866396 17.07727778 39.84544444 19 36 C19 50.85 19 65.7 19 81 C12.73 81 6.46 81 0 81 C0 54.27 0 27.54 0 0 Z " fill="#FCFCFB" transform="translate(549,715)"/>
<path d="M0 0 C6.27 0 12.54 0 19 0 C19 26.73 19 53.46 19 81 C13.06 81 7.12 81 1 81 C1 78.03 1 75.06 1 72 C1.99 71.505 1.99 71.505 3 71 C4.125 77.75 4.125 77.75 3 80 C7.62 80 12.24 80 17 80 C17 54.26 17 28.52 17 2 C11.72 2 6.44 2 1 2 C1 18.83 1 35.66 1 53 C0.67 53 0.34 53 0 53 C0 35.51 0 18.02 0 0 Z " fill="#FDFDFD" transform="translate(361,715)"/>
<path d="M0 0 C0.33 0 0.66 0 1 0 C1 26.73 1 53.46 1 81 C6.94 81 12.88 81 19 81 C19 67.47 19 53.94 19 40 C19.33 40 19.66 40 20 40 C20.16720754 45.96297719 20.32780784 51.92608092 20.48217773 57.8894043 C20.53568003 59.91972695 20.59101547 61.95000214 20.64819336 63.98022461 C20.7298755 66.89166014 20.80505001 69.80320053 20.87890625 72.71484375 C20.90594131 73.6283812 20.93297638 74.54191864 20.96083069 75.48313904 C21.01273771 77.65484502 21.01189236 79.82770633 21 82 C20 83 20 83 18.05053711 83.11352539 C17.2178833 83.10828857 16.38522949 83.10305176 15.52734375 83.09765625 C14.62822266 83.09443359 13.72910156 83.09121094 12.80273438 83.08789062 C11.38444336 83.07532227 11.38444336 83.07532227 9.9375 83.0625 C8.98810547 83.05798828 8.03871094 83.05347656 7.06054688 83.04882812 C4.70696935 83.0370011 2.35351523 83.02052025 0 83 C-1.53885745 79.92228511 -1.07992268 76.70974421 -1.02172852 73.33740234 C-1.01212097 72.54707108 -1.00251343 71.75673981 -0.99261475 70.94245911 C-0.95956697 68.32352958 -0.91925673 65.70476387 -0.87890625 63.0859375 C-0.85461078 61.27276186 -0.83076693 59.45958012 -0.80735779 57.64639282 C-0.74445985 52.86890726 -0.67540941 48.09152946 -0.60510254 43.31414795 C-0.5344706 38.44125281 -0.4696229 33.56828114 -0.40429688 28.6953125 C-0.27521096 19.13012422 -0.13962901 9.56503977 0 0 Z " fill="#44494A" transform="translate(397,715)"/>
<path d="M0 0 C1.91522461 0.0002417 1.91522461 0.0002417 3.86914062 0.00048828 C15.60117562 0.14171273 26.06538586 1.80377019 36.9375 6.375 C36.6075 7.035 36.2775 7.695 35.9375 8.375 C35.04289063 8.10945312 34.14828125 7.84390625 33.2265625 7.5703125 C29.47125697 6.47334692 25.70864478 5.41613797 21.9375 4.375 C21.11636719 4.14039063 20.29523437 3.90578125 19.44921875 3.6640625 C7.80839675 0.81071714 -5.52633081 1.45755181 -17.0625 4.375 C-19.39181103 4.7603951 -21.72102316 5.06958998 -24.0625 5.375 C-24.0625 4.385 -24.0625 3.395 -24.0625 2.375 C-16.02947045 0.3618197 -8.25923213 -0.00972437 0 0 Z " fill="#034F7B" transform="translate(685.0625,223.625)"/>
<path d="M0 0 C14.19 0 28.38 0 43 0 C43 0.66 43 1.32 43 2 C41.73816895 2.02505615 40.47633789 2.0501123 39.17626953 2.07592773 C34.50591431 2.16992106 29.83571063 2.27016131 25.16552734 2.37231445 C23.14212584 2.41569395 21.11868701 2.45736678 19.09521484 2.49731445 C16.19096616 2.55494408 13.28690589 2.6186594 10.3828125 2.68359375 C9.47443634 2.70030624 8.56606018 2.71701874 7.63015747 2.73423767 C6.78943695 2.75418289 5.94871643 2.77412811 5.08251953 2.79467773 C4.34083527 2.81022202 3.599151 2.8257663 2.83499146 2.84178162 C0.90325896 2.89473496 0.90325896 2.89473496 -1 4 C-0.67 2.68 -0.34 1.36 0 0 Z " fill="#040607" transform="translate(712,770)"/>
<path d="M0 0 C0.33 1.32 0.66 2.64 1 4 C14.86 4.495 14.86 4.495 29 5 C29.33 4.34 29.66 3.68 30 3 C30.495 4.98 30.495 4.98 31 7 C20.11 7 9.22 7 -2 7 C-1.34 4.69 -0.68 2.38 0 0 Z " fill="#272929" transform="translate(719,746)"/>
<path d="M0 0 C1.70840281 1.63412443 2.93453047 2.86906094 4 5 C-7.22 5 -18.44 5 -30 5 C-29.34 3.68 -28.68 2.36 -28 1 C-14.14 1.495 -14.14 1.495 0 2 C0 1.34 0 0.68 0 0 Z " fill="#393F40" transform="translate(262,748)"/>
<path d="M0 0 C-3.80462348 2.53641565 -4.6190234 1.77759794 -9 1 C-11.96860913 1.00488488 -14.91528586 1.21928379 -17.875 1.4375 C-18.65875 1.48970703 -19.4425 1.54191406 -20.25 1.59570312 C-22.1670912 1.72428851 -24.08361503 1.86128617 -26 2 C-26 1.01 -26 0.02 -26 -1 C-17.60484933 -3.54090517 -8.30222861 -2.25145183 0 0 Z " fill="#E8E9E7" transform="translate(508,714)"/>
<path d="M0 0 C2.93354555 1.46677278 3.29683363 3.59824042 4.625 6.5625 C7.19698784 11.92984932 10.02035414 15.47013165 14.55859375 19.28125 C16 21 16 21 15.91015625 23.15625 C15.60980469 23.7646875 15.30945313 24.373125 15 25 C14.01 25.33 13.02 25.66 12 26 C12.07734375 25.27425781 12.1546875 24.54851563 12.234375 23.80078125 C11.92981332 20.16126914 10.65004099 18.8984952 8.25 16.1875 C0 6.38696809 0 6.38696809 0 0 Z " fill="#13B6AB" transform="translate(599,555)"/>
<path d="M0 0 C0 0.33 0 0.66 0 1 C-1.27875 1.0825 -2.5575 1.165 -3.875 1.25 C-6.06494855 1.47682064 -6.06494855 1.47682064 -8 2 C-9.27489266 3.79927039 -9.27489266 3.79927039 -10 6 C-10.804375 6.556875 -11.60875 7.11375 -12.4375 7.6875 C-16.00106835 10.90340315 -16.80432511 14.45060286 -18 19 C-18.33 19 -18.66 19 -19 19 C-19.64465319 13.84277445 -18.23067046 10.98211122 -15.4375 6.83203125 C-10.86491768 1.00447389 -7.13635367 -0.1321547 0 0 Z " fill="#0B0D0E" transform="translate(437,732)"/>
<path d="M0 0 C0.99 0.495 0.99 0.495 2 1 C2 1.99 2 2.98 2 4 C2.66 4 3.32 4 4 4 C4.18175781 4.64066406 4.36351562 5.28132813 4.55078125 5.94140625 C6.49106141 12.61796002 8.78584081 18.81892464 12 25 C11.34 25.99 10.68 26.98 10 28 C8.57157089 24.33547148 7.14752324 20.66927431 5.72753906 17.00146484 C5.00558153 15.13939585 4.28014762 13.27867593 3.5546875 11.41796875 C2.87792969 9.66806641 2.87792969 9.66806641 2.1875 7.8828125 C1.76855469 6.80402832 1.34960938 5.72524414 0.91796875 4.61376953 C0 2 0 2 0 0 Z " fill="#098CB0" transform="translate(620,391)"/>
<path d="M0 0 C0.99 0.495 0.99 0.495 2 1 C3.07465731 4.22397192 3.16691803 6.67470786 3.1875 10.0625 C3.20167969 11.12597656 3.21585938 12.18945312 3.23046875 13.28515625 C3 16 3 16 1 18 C0 17 0 17 -0.09765625 13.18359375 C-0.09098089 11.60153318 -0.07901875 10.01948841 -0.0625 8.4375 C-0.05798828 7.63119141 -0.05347656 6.82488281 -0.04882812 5.99414062 C-0.03700518 3.99606244 -0.01906914 1.99802217 0 0 Z " fill="#1A1D1E" transform="translate(513,745)"/>
<path d="M0 0 C4.95 0 9.9 0 15 0 C15 0.66 15 1.32 15 2 C16.32 2.33 17.64 2.66 19 3 C16.58325776 3.02705308 14.1668206 3.04686438 11.75 3.0625 C10.72712891 3.07506836 10.72712891 3.07506836 9.68359375 3.08789062 C6.30657446 3.10428392 3.22708361 3.05628768 0 2 C0 1.34 0 0.68 0 0 Z " fill="#E8E8E8" transform="translate(481,795)"/>
<path d="M0 0 C1.06347656 -0.01417969 2.12695312 -0.02835938 3.22265625 -0.04296875 C5.9375 0.1875 5.9375 0.1875 7.9375 2.1875 C6.00408053 4.12091947 2.56270879 3.36199133 0 3.375 C-1.26714844 3.38917969 -2.53429687 3.40335938 -3.83984375 3.41796875 C-7.0625 3.1875 -7.0625 3.1875 -9.0625 1.1875 C-5.83852808 0.11284269 -3.38779214 0.02058197 0 0 Z " fill="#EBEBEA" transform="translate(640.0625,711.8125)"/>
<path d="M0 0 C0.66 0.33 1.32 0.66 2 1 C1.35534798 5.33304076 -0.18925122 8.86672065 -2.0625 12.8125 C-2.61035156 13.97394531 -3.15820312 15.13539063 -3.72265625 16.33203125 C-4.14417969 17.21246094 -4.56570313 18.09289062 -5 19 C-5.33 19 -5.66 19 -6 19 C-6.17942163 15.05272412 -6.09350689 12.4019487 -4 9 C-3.34 9 -2.68 9 -2 9 C-2.04125 8.2575 -2.0825 7.515 -2.125 6.75 C-1.99601866 3.91241048 -1.42948778 2.41226062 0 0 Z " fill="#0A85B5" transform="translate(731,425)"/>
<path d="M0 0 C0.33 0.66 0.66 1.32 1 2 C0.26821134 4.07196631 -0.55899003 6.1108552 -1.4375 8.125 C-1.91058594 9.22070312 -2.38367188 10.31640625 -2.87109375 11.4453125 C-3.24363281 12.28835938 -3.61617188 13.13140625 -4 14 C-1.69 14 0.62 14 3 14 C1 16 1 16 -2.625 16.125 C-3.73875 16.08375 -4.8525 16.0425 -6 16 C-5.52412884 9.97229862 -2.80277043 5.23321711 0 0 Z " fill="#07ADC5" transform="translate(486,609)"/>
<path d="M0 0 C0 2.97 0 5.94 0 9 C-0.99 9.495 -0.99 9.495 -2 10 C-2 7.36 -2 4.72 -2 2 C-5.63 2 -9.26 2 -13 2 C-13 1.67 -13 1.34 -13 1 C-8.60563789 0.14256349 -4.47427924 -0.08948558 0 0 Z " fill="#DFE1E1" transform="translate(417,715)"/>
<path d="M0 0 C-2.45091043 2.68433048 -4.28241384 3.91789741 -8.04296875 4.09765625 C-8.75066406 4.08605469 -9.45835937 4.07445312 -10.1875 4.0625 C-12.0746875 4.0315625 -12.0746875 4.0315625 -14 4 C-14 3.01 -14 2.02 -14 1 C-12.04310963 0.63794536 -10.08442332 0.28558579 -8.125 -0.0625 C-7.03445313 -0.25972656 -5.94390625 -0.45695313 -4.8203125 -0.66015625 C-2 -1 -2 -1 0 0 Z " fill="#E7E8E6" transform="translate(504,780)"/>
<path d="M0 0 C0.99 0.66 1.98 1.32 3 2 C1.68 5.96 0.36 9.92 -1 14 C-3 11 -3 11 -3 9 C-2.34 9 -1.68 9 -1 9 C-0.67 6.03 -0.34 3.06 0 0 Z " fill="#ECECEB" transform="translate(237,730)"/>
<path d="M0 0 C0.99 0 1.98 0 3 0 C3.5345256 1.24420647 4.05208611 2.49570936 4.5625 3.75 C4.85253906 4.44609375 5.14257812 5.1421875 5.44140625 5.859375 C6.07831803 8.30012784 5.80248831 9.6403655 5 12 C5 11.34 5 10.68 5 10 C4.34 10 3.68 10 3 10 C1.64560332 7.29120665 1.93498549 4.99066732 2 2 C1.34 2 0.68 2 0 2 C0 1.34 0 0.68 0 0 Z " fill="#EDEDEC" transform="translate(757,724)"/>
<path d="M0 0 C0.99 0.33 1.98 0.66 3 1 C3.33 3.64 3.66 6.28 4 9 C4.66 9 5.32 9 6 9 C6 10.65 6 12.3 6 14 C3.07413567 12.53706784 2.94053412 10.59729902 1.875 7.5625 C1.34519531 6.07943359 1.34519531 6.07943359 0.8046875 4.56640625 C0 2 0 2 0 0 Z " fill="#098FB4" transform="translate(631,420)"/>
<path d="M0 0 C0.71484375 1.703125 0.71484375 1.703125 1 4 C-0.43359375 6.359375 -0.43359375 6.359375 -2.4375 8.75 C-3.42556641 9.94882812 -3.42556641 9.94882812 -4.43359375 11.171875 C-5.20896484 12.07679688 -5.20896484 12.07679688 -6 13 C-6 9.32965255 -4.9247108 7.9000569 -3 4.8125 C-2.443125 3.91144531 -1.88625 3.01039063 -1.3125 2.08203125 C-0.6628125 1.05142578 -0.6628125 1.05142578 0 0 Z " fill="#11C2BA" transform="translate(445,621)"/>
<path d="M0 0 C1.74627478 2.61941217 2.38722388 4.03824877 3 7 C2.01 7 1.02 7 0 7 C-0.33 6.01 -0.66 5.02 -1 4 C-4.3 3.67 -7.6 3.34 -11 3 C-11 2.67 -11 2.34 -11 2 C-7.37 2 -3.74 2 0 2 C0 1.34 0 0.68 0 0 Z " fill="#1A1F21" transform="translate(755,770)"/>
<path d="M0 0 C2.1640625 -0.29296875 2.1640625 -0.29296875 4.625 -0.1875 C5.44226563 -0.16042969 6.25953125 -0.13335938 7.1015625 -0.10546875 C8.04128906 -0.05326172 8.04128906 -0.05326172 9 0 C9 0.99 9 1.98 9 3 C5.37 3 1.74 3 -2 3 C-1.34 2.01 -0.68 1.02 0 0 Z " fill="#1A1F20" transform="translate(586,731)"/>
<path d="M0 0 C2 4 2 4 1.3125 6.6875 C0 9 0 9 -3 10 C-2.01 6.7 -1.02 3.4 0 0 Z " fill="#EAEBEA" transform="translate(686,784)"/>
<path d="M0 0 C3.3 0 6.6 0 10 0 C9.01 1.485 9.01 1.485 8 3 C2.25 2.25 2.25 2.25 0 0 Z " fill="#140D0E" transform="translate(308,508)"/>
<path d="M0 0 C0.88336837 2.4667645 1.1312406 3.63859372 0.22265625 6.140625 C-0.16019531 6.83671875 -0.54304688 7.5328125 -0.9375 8.25 C-1.31777344 8.95640625 -1.69804687 9.6628125 -2.08984375 10.390625 C-2.39019531 10.92171875 -2.69054687 11.4528125 -3 12 C-4.21386936 8.35839192 -3.6674695 7.66834531 -2.0625 4.3125 C-1.49208984 3.10013672 -1.49208984 3.10013672 -0.91015625 1.86328125 C-0.60980469 1.24839844 -0.30945313 0.63351562 0 0 Z " fill="#13BCAF" transform="translate(458,464)"/>
<path d="M0 0 C2.39223697 2.39223697 2.6758631 3.67759676 3 7 C2.01 8.485 2.01 8.485 1 10 C0.63720544 8.71073008 0.28503302 7.41846728 -0.0625 6.125 C-0.35833984 5.04605469 -0.35833984 5.04605469 -0.66015625 3.9453125 C-1 2 -1 2 0 0 Z " fill="#E4E4E3" transform="translate(275,777)"/>
<path d="M0 0 C1.41377341 2.63904371 2.37240135 5.07120629 3 8 C2.01 8 1.02 8 0 8 C-0.66 5.69 -1.32 3.38 -2 1 C-1.34 0.67 -0.68 0.34 0 0 Z " fill="#EBECEA" transform="translate(759,774)"/>
<path d="M0 0 C0.88336837 2.4667645 1.1312406 3.63859372 0.22265625 6.140625 C-0.16019531 6.83671875 -0.54304688 7.5328125 -0.9375 8.25 C-1.31777344 8.95640625 -1.69804687 9.6628125 -2.08984375 10.390625 C-2.39019531 10.92171875 -2.69054687 11.4528125 -3 12 C-4.21386936 8.35839192 -3.6674695 7.66834531 -2.0625 4.3125 C-1.49208984 3.10013672 -1.49208984 3.10013672 -0.91015625 1.86328125 C-0.60980469 1.24839844 -0.30945313 0.63351562 0 0 Z " fill="#13BFB1" transform="translate(437,519)"/>
<path d="M0 0 C0.66 0 1.32 0 2 0 C1.67 2.31 1.34 4.62 1 7 C0.34 7 -0.32 7 -1 7 C-1.04254356 5.00045254 -1.04080783 2.99958364 -1 1 C-0.67 0.67 -0.34 0.34 0 0 Z " fill="#EBEBEA" transform="translate(452,746)"/>
<path d="M0 0 C1.46726798 3.81489674 0.43336419 6.29011622 -1 10 C-1.66 9.01 -2.32 8.02 -3 7 C-2.21069203 4.51064409 -1.1651105 2.330221 0 0 Z " fill="#EBECEB" transform="translate(719,741)"/>
<path d="M0 0 C1 3 1 3 -0.4375 6.1875 C-1.2109375 7.5796875 -1.2109375 7.5796875 -2 9 C-2.66 7.68 -3.32 6.36 -4 5 C-2 2 -2 2 0 0 Z " fill="#191D20" transform="translate(249,710)"/>
<path d="M0 0 C0.66 0.99 1.32 1.98 2 3 C1.3203125 5.26171875 1.3203125 5.26171875 0.125 7.6875 C-0.45894531 8.89986328 -0.45894531 8.89986328 -1.0546875 10.13671875 C-1.52261719 11.05904297 -1.52261719 11.05904297 -2 12 C-3.12377697 8.69564916 -2.89554742 6.9493138 -1.5625 3.75 C-1.27503906 3.04359375 -0.98757813 2.3371875 -0.69140625 1.609375 C-0.46324219 1.07828125 -0.23507812 0.5471875 0 0 Z " fill="#08090B" transform="translate(733,706)"/>
<path d="M0 0 C0.66 0 1.32 0 2 0 C2.33 2.31 2.66 4.62 3 7 C2.34 6.34 1.68 5.68 1 5 C0.34 5.99 -0.32 6.98 -1 8 C-0.67 5.36 -0.34 2.72 0 0 Z " fill="#0D0F10" transform="translate(248,706)"/>
<path d="M0 0 C0.33 1.32 0.66 2.64 1 4 C0.360625 4.103125 -0.27875 4.20625 -0.9375 4.3125 C-1.618125 4.539375 -2.29875 4.76625 -3 5 C-3.33 5.99 -3.66 6.98 -4 8 C-4.33 7.34 -4.66 6.68 -5 6 C-3.35 4.02 -1.7 2.04 0 0 Z " fill="#0AB3CB" transform="translate(492,601)"/>
<path d="M0 0 C1.99097846 2.98646769 2.94124926 5.59687262 4 9 C3.01 8.67 2.02 8.34 1 8 C1 7.01 1 6.02 1 5 C0.34 5 -0.32 5 -1 5 C-0.67 3.35 -0.34 1.7 0 0 Z " fill="#E6E8E7" transform="translate(267,705)"/>
<path d="M0 0 C2.97 0.495 2.97 0.495 6 1 C4 3 4 3 1.375 3.125 C0.59125 3.08375 -0.1925 3.0425 -1 3 C-0.67 2.01 -0.34 1.02 0 0 Z M-5 3 C-1 4 -1 4 -1 4 Z " fill="#179A90" transform="translate(277,429)"/>
</svg>
